<?xml version="1.0" standalone="no"?><!DOCTYPE svg PUBLIC "-//W3C//DTD SVG 1.1//EN" "http://www.w3.org/Graphics/SVG/1.1/DTD/svg11.dtd"><svg t="1594479369234" class="icon" viewBox="0 0 1024 1024" version="1.1" xmlns="http://www.w3.org/2000/svg" p-id="16289" xmlns:xlink="http://www.w3.org/1999/xlink" width="48" height="48"><defs><style type="text/css"></style></defs><path d="M597.9 920.1c-17.5 0-31.7-14.2-31.7-31.7V715.2c0-17.5 14.2-31.7 31.7-31.7H732c17.5 0 31.7 14.2 31.7 31.7v27.7l25.7-0.3-0.3-164.9-25.7 0.3 0.3 16.5c0 17.5-14.2 31.7-31.7 31.7H597.9c-17.5 0-31.7-14.2-31.7-31.7v-93.9H361.9V886c0 17.5-14.2 31.7-31.7 31.7s-31.7-14.2-31.7-31.7V468.9c0-17.5 14.2-31.7 31.7-31.7h267.7c17.5 0 31.7 14.2 31.7 31.7v93.9h72.6c6.7-27.6 31.6-48.2 61.3-48.2h26c34.8 0 63.1 28.3 63.1 63.1v165.2c0 34.8-28.3 63.1-63.1 63.1h-26c-33.4 0-60.9-26.2-62.9-59.1h-70.9v141.6c-0.1 17.4-14.3 31.6-31.8 31.6z"  p-id="16290"></path><path d="M392.1 835.4c-8.4 0-16.9-3.4-23.1-10-12-12.8-11.3-32.8 1.5-44.8 12.3-11.6 33-31 11.6-88.9-33.8-91.2 28.4-141.5 31-143.6 13.7-10.8 33.7-8.4 44.5 5.3 10.7 13.6 8.5 33.3-4.9 44.2-3.2 2.8-28.2 26.2-11.2 72.2 24.3 65.5 15.2 116.9-27.7 157.1-6.1 5.7-13.9 8.5-21.7 8.5z"  p-id="16291"></path><path d="M469.5 835.4c-8.4 0-16.9-3.4-23.1-10-12-12.8-11.3-32.8 1.4-44.8 12.4-11.6 33-31 11.6-88.9-33.8-91.2 28.4-141.5 31-143.6 13.7-10.8 33.7-8.4 44.5 5.3 10.7 13.6 8.5 33.3-4.9 44.2-3.2 2.8-28.2 26.2-11.2 72.2 24.3 65.5 15.2 116.9-27.7 157.1-6.1 5.7-13.9 8.5-21.6 8.5z"  p-id="16292"></path><path d="M928.4 920.1c-17.5 0-31.7-14.2-31.7-31.7V324.8c0-2-1.1-3.8-2.8-4.7L536.9 126c-4.1-2.2-8.9-2.2-12.9 0.1L166.7 324.4c-1.7 0.9-2.8 2.7-2.8 4.7v556c0 17.5-14.2 31.7-31.7 31.7s-31.7-14.2-31.7-31.7v-556c0-24.9 13.5-48 35.3-60.1L493.3 70.7c23.1-12.8 50.7-12.9 73.9-0.3l357 194c22.1 12 35.9 35.2 35.9 60.4v563.6c-0.1 17.5-14.2 31.7-31.7 31.7z"  p-id="16293"></path><path d="M651.9 491.7H276.3c-34.9 0-63.4-28.4-63.4-63.4v-82.8c0-34.9 28.4-63.4 63.4-63.4h375.6c34.9 0 63.4 28.4 63.4 63.4v82.8c-0.1 34.9-28.5 63.4-63.4 63.4z m0-63.4V460v-31.7z m-375.6-82.8v82.8h375.5l0.1-82.8H276.3z"  p-id="16294"></path></svg>