<?xml version="1.0" standalone="no"?><!DOCTYPE svg PUBLIC "-//W3C//DTD SVG 1.1//EN" "http://www.w3.org/Graphics/SVG/1.1/DTD/svg11.dtd"><svg t="1594478614292" class="icon" viewBox="0 0 1024 1024" version="1.1" xmlns="http://www.w3.org/2000/svg" p-id="7686" width="32" height="32" xmlns:xlink="http://www.w3.org/1999/xlink"><defs><style type="text/css"></style></defs><path d="M572.224068 387.140238m17.702709-24.365688l70.810835-97.462753q17.702709-24.365688 42.068397-6.66298l0 0q24.365688 17.702709 6.662979 42.068398l-70.810835 97.462753q-17.702709 24.365688-42.068397 6.662979l0 0q-24.365688-17.702709-6.662979-42.068397Z" p-id="7687" ></path><path d="M512 692.705882a180.705882 180.705882 0 1 0 0-361.411764 180.705882 180.705882 0 0 0 0 361.411764z m0-60.235294a120.470588 120.470588 0 1 1 0-240.941176 120.470588 120.470588 0 0 1 0 240.941176z" p-id="7688" ></path><path d="M481.882353 30.117647m30.117647 0l0 0q30.117647 0 30.117647 30.117647l0 60.235294q0 30.117647-30.117647 30.117647l0 0q-30.117647 0-30.117647-30.117647l0-60.235294q0-30.117647 30.117647-30.117647Z" p-id="7689" ></path><path d="M30.117647 572.235294m0-30.117647l0 0q0-30.117647 30.117647-30.117647l60.235294 0q30.117647 0 30.117647 30.117647l0 0q0 30.117647-30.117647 30.117647l-60.235294 0q-30.117647 0-30.117647-30.117647Z" p-id="7690" ></path><path d="M873.411765 572.235294m0-30.117647l0 0q0-30.117647 30.117647-30.117647l60.235294 0q30.117647 0 30.117647 30.117647l0 0q0 30.117647-30.117647 30.117647l-60.235294 0q-30.117647 0-30.117647-30.117647Z" p-id="7691" ></path><path d="M874.706824 864.496941A502.633412 502.633412 0 0 0 1024 506.819765C1024 226.846118 794.684235 0 512 0S0 226.846118 0 506.819765a502.663529 502.663529 0 0 0 149.564235 357.978353 30.117647 30.117647 0 1 0 42.435765-42.767059A442.428235 442.428235 0 0 1 60.235294 506.819765C60.235294 260.216471 262.415059 60.235294 512 60.235294c249.584941 0 451.764706 200.011294 451.764706 446.584471a442.428235 442.428235 0 0 1-131.493647 314.970353 30.117647 30.117647 0 1 0 42.465882 42.706823z" p-id="7692" ></path><path d="M361.411765 843.294118m30.117647 0l240.941176 0q30.117647 0 30.117647 30.117647l0 0q0 30.117647-30.117647 30.117647l-240.941176 0q-30.117647 0-30.117647-30.117647l0 0q0-30.117647 30.117647-30.117647Z" p-id="7693" ></path><path d="M240.941176 963.764706m30.117648 0l481.882352 0q30.117647 0 30.117648 30.117647l0 0q0 30.117647-30.117648 30.117647l-481.882352 0q-30.117647 0-30.117648-30.117647l0 0q0-30.117647 30.117648-30.117647Z" p-id="7694" ></path></svg>