<?xml version="1.0" standalone="no"?><!DOCTYPE svg PUBLIC "-//W3C//DTD SVG 1.1//EN" "http://www.w3.org/Graphics/SVG/1.1/DTD/svg11.dtd"><svg t="1594481027946" class="icon" viewBox="0 0 1120 1024" version="1.1" xmlns="http://www.w3.org/2000/svg" p-id="16720" xmlns:xlink="http://www.w3.org/1999/xlink" width="52.5" height="48"><defs><style type="text/css"></style></defs><path d="M947.008 960c12.48-18.368 18.528-40.96 16.064-64h43.072a32 32 0 0 0 28.096-47.36c-110.816-202.56-174.304-373.056-189.92-511.2a3348.16 3348.16 0 0 1-15.488-116.896A32 32 0 0 0 797.024 192h-33.6l-12.192-42.688a95.936 95.936 0 0 0-8.96-21.312h54.752a96 96 0 0 1 95.456 85.6c3.072 28.48 8.16 66.688 15.296 115.584 14.688 129.664 75.424 292.832 182.592 488.736A96 96 0 0 1 1006.144 960h-59.136z" p-id="16721"></path><path d="M669.728 0a96 96 0 0 1 95.2 83.616c3.904 30.048 10.56 72.544 20.064 128.64 25.088 191.008 91.136 416 198.304 674.752a96 96 0 0 1-88.672 132.736H125.92a96 96 0 0 1-89.664-130.304c118.24-309.12 184.992-535.104 200.288-676.48 5.856-54.144 10.72-96.992 14.56-128.608A96 96 0 0 1 346.4 0H669.76zM314.656 92.128c-3.84 31.264-8.64 73.824-14.496 127.712C284.16 368.064 216.096 598.4 96 912.32a32 32 0 0 0 29.92 43.424h768.704a32 32 0 0 0 29.568-44.256c-109.184-263.552-176.768-493.76-202.464-689.696-9.472-55.648-16.256-98.88-20.288-129.92A32 32 0 0 0 669.76 64H346.4a32 32 0 0 0-31.744 28.128z" p-id="16722"></path><path d="M479.808 457.024l77.888 41.408a32.064 32.064 0 0 1 23.808 25.344 31.872 31.872 0 0 1-7.04 27.84l-86.336 162.432a32 32 0 1 1-56.512-30.048l74.656-140.416-84.064-44.704a31.936 31.936 0 0 1-16.448-22.528 31.872 31.872 0 0 1 2.976-21.952l60.096-113.024a32 32 0 1 1 56.512 30.048l-45.536 85.6z" p-id="16723"></path></svg>